<svg xmlns="http://www.w3.org/2000/svg" width="15.998" height="16" viewBox="0 0 24 24.002">
  <defs>
    <style>
      .cls-1 {
        fill: #30a5fe;
        fill-rule: evenodd;
      }
    </style>
  </defs>
  <path id="形状_49" data-name="形状 49" class="cls-1" d="M57.249,308.266l4.441-1.82,1-.4,1,0.4,4.441,1.82L67.99,303.3l-0.027-.979,0.615-.772,2.856-3.585-4.592-1.407-0.888-.275-0.533-.773-2.747-4-2.747,4-0.533.773-0.888.275-4.564,1.407,2.856,3.585,0.615,0.772-0.027.979-0.137,4.963m12.859,2.827-7.42-3.033-7.42,3.033,0.219-8.19-4.8-6.026,7.543-2.3,4.455-6.48,4.455,6.48,7.543,2.3-4.8,6.04Z" transform="translate(-50.688 -287.593)"/>
</svg>
