<svg xmlns="http://www.w3.org/2000/svg" width="15.998" height="15.554" viewBox="0 0 36 35">
  <metadata><?xpacket begin="﻿" id="W5M0MpCehiHzreSzNTczkc9d"?>
<x:xmpmeta xmlns:x="adobe:ns:meta/" x:xmptk="Adobe XMP Core 5.6-c142 79.160924, 2017/07/13-01:06:39        ">
   <rdf:RDF xmlns:rdf="http://www.w3.org/1999/02/22-rdf-syntax-ns#">
      <rdf:Description rdf:about=""/>
   </rdf:RDF>
</x:xmpmeta>
                                                                                                    
                                                                                                    
                                                                                                    
                                                                                                    
                                                                                                    
                                                                                                    
                                                                                                    
                                                                                                    
                                                                                                    
                                                                                                    
                                                                                                    
                                                                                                    
                                                                                                    
                                                                                                    
                                                                                                    
                                                                                                    
                                                                                                    
                                                                                                    
                                                                                                    
                                                                                                    
                           
<?xpacket end="w"?></metadata>
<defs>
    <style>
      .cls-1 {
        fill-rule: evenodd;
      }
    </style>
  </defs>
  <path id="形状_62" data-name="形状 62" class="cls-1" d="M227.194,7844.2h10.92a2.221,2.221,0,0,0,2.186-2.25v-18.01a2.221,2.221,0,0,0-2.186-2.25H211.886c-1.207,0-2.186,1.45-2.186,2.69v17.95a1.915,1.915,0,0,0,2.186,1.87l5.914-.07v5.38ZM211.5,7819h27c2.485,0,4.5,2.71,4.5,5.22v18.19a4.409,4.409,0,0,1-4.5,4.41H227.7L215.1,7854v-7.18h-3.6a4.409,4.409,0,0,1-4.5-4.41v-18.19C207,7821.71,209.015,7819,211.5,7819Zm2.571,13.95a2.187,2.187,0,1,0,2.186-2.25A2.221,2.221,0,0,0,214.071,7832.95Zm8.743,0A2.187,2.187,0,1,0,225,7830.7,2.221,2.221,0,0,0,222.814,7832.95Zm8.743,0a2.186,2.186,0,1,0,2.186-2.25A2.221,2.221,0,0,0,231.557,7832.95Z" transform="translate(-207 -7819)"/>
</svg>
