<svg xmlns="http://www.w3.org/2000/svg" width="16" height="16" viewBox="0 0 16 16">
  <metadata><?xpacket begin="﻿" id="W5M0MpCehiHzreSzNTczkc9d"?>
<x:xmpmeta xmlns:x="adobe:ns:meta/" x:xmptk="Adobe XMP Core 5.6-c142 79.160924, 2017/07/13-01:06:39        ">
   <rdf:RDF xmlns:rdf="http://www.w3.org/1999/02/22-rdf-syntax-ns#">
      <rdf:Description rdf:about=""/>
   </rdf:RDF>
</x:xmpmeta>
                                                                                                    
                                                                                                    
                                                                                                    
                                                                                                    
                                                                                                    
                                                                                                    
                                                                                                    
                                                                                                    
                                                                                                    
                                                                                                    
                                                                                                    
                                                                                                    
                                                                                                    
                                                                                                    
                                                                                                    
                                                                                                    
                                                                                                    
                                                                                                    
                                                                                                    
                                                                                                    
                           
<?xpacket end="w"?></metadata>
<defs>
    <style>
      .cls-1 {
        fill: #999;
        fill-rule: evenodd;
      }
    </style>
  </defs>
  <path id="形状_46" data-name="形状 46" class="cls-1" d="M10.667,7.667H8V5a0.763,0.763,0,0,0-.748-0.657A0.615,0.615,0,0,0,6.667,5l0,3.415A0.55,0.55,0,0,0,7.252,9h3.49a0.627,0.627,0,0,0,.592-0.663,0.693,0.693,0,0,0-.667-0.667h0ZM8,0A7.948,7.948,0,0,0,0,8a7.948,7.948,0,0,0,8,8,7.948,7.948,0,0,0,8-8A7.948,7.948,0,0,0,8,0ZM8,14.855A6.855,6.855,0,1,1,14.855,8,6.875,6.875,0,0,1,8,14.855H8Z"/>
</svg>
