<svg xmlns="http://www.w3.org/2000/svg" width="16" height="12" viewBox="0 0 33.333 25">
  <metadata><?xpacket begin="﻿" id="W5M0MpCehiHzreSzNTczkc9d"?>
<x:xmpmeta xmlns:x="adobe:ns:meta/" x:xmptk="Adobe XMP Core 5.6-c142 79.160924, 2017/07/13-01:06:39        ">
   <rdf:RDF xmlns:rdf="http://www.w3.org/1999/02/22-rdf-syntax-ns#">
      <rdf:Description rdf:about=""/>
   </rdf:RDF>
</x:xmpmeta>
                                                                                                    
                                                                                                    
                                                                                                    
                                                                                                    
                                                                                                    
                                                                                                    
                                                                                                    
                                                                                                    
                                                                                                    
                                                                                                    
                                                                                                    
                                                                                                    
                                                                                                    
                                                                                                    
                                                                                                    
                                                                                                    
                                                                                                    
                                                                                                    
                                                                                                    
                                                                                                    
                           
<?xpacket end="w"?></metadata>
<defs>
    <style>
      .cls-1 {
        fill: #e4e4e4;
        fill-rule: evenodd;
      }
    </style>
  </defs>
  <path id="形状_45_副本_2" data-name="形状 45 副本 2" class="cls-1" d="M228.86,286.506l-4.427,3.825a1.2,1.2,0,0,0-.34,1.055l1.045,6.143a1.018,1.018,0,0,1-.4,1.127,1.279,1.279,0,0,1-1.356.1l-5.589-3.038a1.176,1.176,0,0,0-1.1,0l-5.355,3.038a1.28,1.28,0,0,1-1.356-.1,1.175,1.175,0,0,1-.629-1.127l1.28-6.27a1.2,1.2,0,0,0-.34-1.056l-4.661-3.7a1.3,1.3,0,0,1,.712-2.214l6.064-1.072a1.185,1.185,0,0,0,.89-0.653l2.791-5.939a1.282,1.282,0,0,1,2.309,0l2.682,5.939a1.185,1.185,0,0,0,.89.653l6.173,1.072a1.29,1.29,0,0,1,1.038.884,1.307,1.307,0,0,1-.326,1.33h0Z" transform="translate(-200.583 -274.906)"/>
</svg>
