<svg xmlns="http://www.w3.org/2000/svg" width="16" height="15.999" viewBox="0 0 30.002 30">
  <defs>
    <style>
      .cls-1 {
        fill: #fff;
        fill-rule: evenodd;
      }
    </style>
  </defs>
  <path id="形状_68" data-name="形状 68" class="cls-1" d="M51.108,179.451v-0.094c0-.223.01-0.443,0-0.664a3.289,3.289,0,0,0-.673-1.852,7.57,7.57,0,0,0-.644-0.677c-0.154-.164-0.153-0.164-0.3-0.331a9.367,9.367,0,0,1-1.943-3.61,9.753,9.753,0,0,1-.035-5.116,9.4,9.4,0,0,1,1.636-3.317,8.97,8.97,0,0,1,1.331-1.386,8.607,8.607,0,0,1,2.171-1.329,8.122,8.122,0,0,1,2.963-.64c0.226,0,.223,0,0.449,0a8.111,8.111,0,0,1,2.565.484,8.445,8.445,0,0,1,1.715.853,9.172,9.172,0,0,1,3.76,5.12,9.731,9.731,0,0,1,.307,3.947,9.459,9.459,0,0,1-1.705,4.344,9.248,9.248,0,0,1-.728.882c-0.179.191-.374,0.368-0.553,0.561-0.073.081-.142,0.166-0.209,0.254a3.367,3.367,0,0,0-.626,1.835c0,0.245-.006.491-0.008,0.736,0.53,0.016,1.059.032,1.589,0.053a0.865,0.865,0,0,1,.354.111,0.824,0.824,0,0,1,.27,1.133,0.772,0.772,0,0,1-.079.107,0.836,0.836,0,0,1-.545.271q-1.713.063-3.429,0.095l-0.014.173a2.982,2.982,0,0,1-.272.963,2.9,2.9,0,0,1-5.5-.963c-0.006-.057-0.012-0.114-0.014-0.173q-1.716-.03-3.431-0.095a0.883,0.883,0,0,1-.354-0.112,0.824,0.824,0,0,1-.27-1.133,0.9,0.9,0,0,1,.079-0.107,0.84,0.84,0,0,1,.545-0.27c0.532-.021,1.067-0.039,1.6-0.053h0Zm3.465,1.79,0.006,0.053a1.347,1.347,0,0,0,.4.75,1.275,1.275,0,0,0,2.126-.8Q55.841,181.251,54.573,181.241Zm4.384-1.829,0.008-.742a4.913,4.913,0,0,1,.941-2.75,7.062,7.062,0,0,1,.758-0.833c0.128-.134.128-0.134,0.254-0.272a7.8,7.8,0,0,0,1.783-3.584,8.116,8.116,0,0,0-.061-3.524,7.685,7.685,0,0,0-1.974-3.583,6.947,6.947,0,0,0-2.429-1.616,6.563,6.563,0,0,0-3.8-.3,6.7,6.7,0,0,0-2.215.929,7.269,7.269,0,0,0-1.992,1.933A7.789,7.789,0,0,0,49,167.888a8.11,8.11,0,0,0,.02,3.516,7.742,7.742,0,0,0,1.947,3.63c0.142,0.147.293,0.285,0.435,0.431a4.974,4.974,0,0,1,1.248,2.413,5.269,5.269,0,0,1,.091.876l0,0.658q3.11-.057,6.222,0h0ZM45.746,163.567a0.815,0.815,0,0,1,.783.846,0.806,0.806,0,0,1-.045.237,0.781,0.781,0,0,1-.154.262,0.793,0.793,0,0,1-.583.279,24.509,24.509,0,0,1-2.528,0,0.813,0.813,0,0,1-.291-1.531,0.849,0.849,0,0,1,.346-0.089C44.1,163.553,44.921,163.553,45.746,163.567Zm22.99,0a0.8,0.8,0,0,1,.583.278,0.82,0.82,0,0,1-.583,1.346,24.511,24.511,0,0,1-2.528,0,0.813,0.813,0,0,1-.291-1.531,0.848,0.848,0,0,1,.346-0.089c0.825-.014,1.648-0.014,2.474,0h0Zm-4.567-6.89a0.81,0.81,0,0,1,.746,1.093,0.833,0.833,0,0,1-.173.277,21.942,21.942,0,0,1-1.795,1.788,0.817,0.817,0,0,1-1.317-.6,0.827,0.827,0,0,1,.221-0.6,21.626,21.626,0,0,1,1.795-1.789,0.873,0.873,0,0,1,.335-0.158A0.838,0.838,0,0,1,64.169,156.677Zm-16.658,0a0.828,0.828,0,0,1,.512.205,17.785,17.785,0,0,1,1.8,1.811,0.847,0.847,0,0,1,.169.616,0.824,0.824,0,0,1-.938.69,0.942,0.942,0,0,1-.1-0.024,0.8,0.8,0,0,1-.321-0.187,22.56,22.56,0,0,1-1.789-1.794A0.819,0.819,0,0,1,47.51,156.677ZM55.868,154a0.813,0.813,0,0,1,.782.73,15.218,15.218,0,0,1,0,2.583,0.819,0.819,0,0,1-1.532.291,0.86,0.86,0,0,1-.09-0.346,24.388,24.388,0,0,1,0-2.528,0.883,0.883,0,0,1,.073-0.267A0.831,0.831,0,0,1,55.813,154h0.055Z" transform="translate(-41.015 -154)"/>
</svg>
